<svg xmlns="http://www.w3.org/2000/svg" viewBox="0 0 28 28"><defs><style>.cls-1{fill:#fff;}</style></defs><g id="Layer_2" data-name="Layer 2"><g id="Line_17" data-name="Line 17"><g id="_1" data-name="1"><path class="cls-1" d="M8,16H4a4,4,0,0,0-4,4v4a4,4,0,0,0,4,4H8a4,4,0,0,0,4-4V20A4,4,0,0,0,8,16Zm2,8a2,2,0,0,1-2,2H4a2,2,0,0,1-2-2V20a2,2,0,0,1,2-2H8a2,2,0,0,1,2,2ZM8,0H4A4,4,0,0,0,0,4V8a4,4,0,0,0,4,4H8a4,4,0,0,0,4-4V4A4,4,0,0,0,8,0Zm2,8a2,2,0,0,1-2,2H4A2,2,0,0,1,2,8V4A2,2,0,0,1,4,2H8a2,2,0,0,1,2,2Zm14,8H20a4,4,0,0,0-4,4v4a4,4,0,0,0,4,4h4a4,4,0,0,0,4-4V20A4,4,0,0,0,24,16Zm2,8a2,2,0,0,1-2,2H20a2,2,0,0,1-2-2V20a2,2,0,0,1,2-2h4a2,2,0,0,1,2,2ZM24,0H20a4,4,0,0,0-4,4V8a4,4,0,0,0,4,4h4a4,4,0,0,0,4-4V4A4,4,0,0,0,24,0Zm2,8a2,2,0,0,1-2,2H20a2,2,0,0,1-2-2V4a2,2,0,0,1,2-2h4a2,2,0,0,1,2,2Z"/></g></g></g></svg>