<svg xmlns="http://www.w3.org/2000/svg" viewBox="0 0 32 31.99"><defs><style>.cls-1{fill:#fff;}</style></defs><g id="Layer_2" data-name="Layer 2"><g id="Line_9" data-name="Line 9"><g id="_6" data-name="6"><path class="cls-1" d="M25,12a3,3,0,1,0,3,3A3,3,0,0,0,25,12Zm1,4H24V14h2Zm1,10H23a1,1,0,0,0,0,2h4a1,1,0,0,0,0-2ZM18,12H6a2,2,0,0,0-2,2V26a2,2,0,0,0,2,2H18a2,2,0,0,0,2-2V14A2,2,0,0,0,18,12Zm0,13a1,1,0,0,1-1,1H7a1,1,0,0,1-1-1V15a1,1,0,0,1,1-1H17a1,1,0,0,1,1,1Zm9-2H23a1,1,0,0,0,0,2h4a1,1,0,0,0,0-2ZM28,8H18.75l8.77-6A1.1,1.1,0,0,0,27.81.48,1,1,0,0,0,26.43.17S16.82,6.81,16,7.3L5.57.17A1,1,0,0,0,4.19.48,1.1,1.1,0,0,0,4.48,2l8.77,6H4a4,4,0,0,0-4,4V28a4,4,0,0,0,4,4H28a4,4,0,0,0,4-4V12A4,4,0,0,0,28,8Zm2,20a2,2,0,0,1-2,2H4a2,2,0,0,1-2-2V12a2,2,0,0,1,2-2H28a2,2,0,0,1,2,2Z"/></g></g></g></svg>