<svg xmlns="http://www.w3.org/2000/svg" viewBox="0 0 32 30.11"><defs><style>.cls-1{fill:#fff;}</style></defs><g id="Layer_2" data-name="Layer 2"><g id="Line_16" data-name="Line 16"><g id="_1" data-name="1"><path class="cls-1" d="M24,0c-3.33,0-5.85,2-8,4-2-2.17-4.67-4-8-4A8.22,8.22,0,0,0,0,8.44,9.83,9.83,0,0,0,2,14.1L14.46,29c1.39,1.48,1.66,1.48,3.05,0L30,14.1a8.67,8.67,0,0,0,2-5.66A8.22,8.22,0,0,0,24,0Zm4,13.68L16,28,4,13.62c-1.44-2-2-3.34-2-5.18C2,5,4.46,1.9,8,1.88c2.92,0,6.22,3,8,5.19,1.73-2.16,5.08-5.19,8-5.19,3.45,0,6,3.12,6,6.56A7.65,7.65,0,0,1,28,13.68Z"/></g></g></g></svg>