<svg xmlns="http://www.w3.org/2000/svg" viewBox="0 0 32 30"><defs><style>.cls-1{fill:#fff;}</style></defs><g id="Layer_2" data-name="Layer 2"><g id="Line_12" data-name="Line 12"><g id="_8" data-name="8"><path class="cls-1" d="M28,0H4A4,4,0,0,0,0,4V26a4,4,0,0,0,4,4H28a4,4,0,0,0,4-4V4A4,4,0,0,0,28,0ZM24,28H4a2,2,0,0,1-2-2V4A2,2,0,0,1,4,2H24Zm6-2a2,2,0,0,1-2,2H26V2h2a2,2,0,0,1,2,2ZM5,16H17.27l-4,3.3a1,1,0,0,0,0,1.42,1,1,0,0,0,1.43,0l6-4.94A1,1,0,0,0,21,15a1,1,0,0,0-.28-.77l-6-4.94a1,1,0,0,0-1.43,0,1,1,0,0,0,0,1.42l4,3.27H5a1,1,0,0,0,0,2Z"/></g></g></g></svg>