<svg xmlns="http://www.w3.org/2000/svg" viewBox="0 0 31.99 31.99"><defs><style>.cls-1{fill:#fff;}</style></defs><g id="Layer_2" data-name="Layer 2"><g id="Line_21" data-name="Line 21"><g id="_4" data-name="4"><path class="cls-1" d="M31.69,30.25l-8.26-8.13a13.06,13.06,0,0,0,3.49-8.87A13.36,13.36,0,0,0,13.46,0,13.36,13.36,0,0,0,0,13.25,13.36,13.36,0,0,0,13.46,26.49a13.51,13.51,0,0,0,8.47-3l8.29,8.16a1.05,1.05,0,0,0,1.47,0A1,1,0,0,0,31.69,30.25Zm-18.23-5.8A11.29,11.29,0,0,1,2.07,13.25,11.3,11.3,0,0,1,13.46,2,11.3,11.3,0,0,1,24.85,13.25,11.29,11.29,0,0,1,13.46,24.45Z"/></g></g></g></svg>