<svg xmlns="http://www.w3.org/2000/svg" viewBox="0 0 30 30"><defs><style>.cls-1{fill:#fff;}</style></defs><g id="Layer_2" data-name="Layer 2"><g id="Line_6" data-name="Line 6"><g id="_1" data-name="1"><path class="cls-1" d="M15,10a5,5,0,1,0,5,5A5,5,0,0,0,15,10Zm0,8a3,3,0,1,1,3-3A3,3,0,0,1,15,18Zm14,.54-2.33-1.36A12,12,0,0,0,26.9,15a12,12,0,0,0-.22-2.18L29,11.46a2,2,0,0,0,.72-2.73l-2-3.46A2,2,0,0,0,25,4.54L22.69,5.9A11.74,11.74,0,0,0,19,3.7V2a2,2,0,0,0-2-2H13a2,2,0,0,0-2,2V3.7A11.74,11.74,0,0,0,7.31,5.9L5,4.54a2,2,0,0,0-2.71.73l-2,3.46A2,2,0,0,0,1,11.46l2.32,1.36a11.42,11.42,0,0,0,0,4.36L1,18.54a2,2,0,0,0-.72,2.73l2,3.46A2,2,0,0,0,5,25.46L7.31,24.1A11.74,11.74,0,0,0,11,26.3V28a2,2,0,0,0,2,2h4a2,2,0,0,0,2-2V26.3a11.74,11.74,0,0,0,3.72-2.2L25,25.46a2,2,0,0,0,2.71-.73l2-3.46A2,2,0,0,0,29,18.54Zm-1.49,2.59-1,1.74a1,1,0,0,1-1.36.36l-2.75-1.6A9.89,9.89,0,0,1,17,24.8V27a1,1,0,0,1-1,1H14a1,1,0,0,1-1-1V24.8a9.89,9.89,0,0,1-5.44-3.17l-2.75,1.6a1,1,0,0,1-1.36-.36l-1-1.74a1,1,0,0,1,.36-1.36l2.77-1.61a9.69,9.69,0,0,1,0-6.32L2.84,10.23a1,1,0,0,1-.36-1.36l1-1.74a1,1,0,0,1,1.36-.36l2.75,1.6A9.89,9.89,0,0,1,13,5.2V3a1,1,0,0,1,1-1h2a1,1,0,0,1,1,1V5.2a9.89,9.89,0,0,1,5.44,3.17l2.75-1.6a1,1,0,0,1,1.36.36l1,1.74a1,1,0,0,1-.36,1.36l-2.77,1.61a9.69,9.69,0,0,1,0,6.32l2.77,1.61A1,1,0,0,1,27.52,21.13Z"/></g></g></g></svg>