<svg xmlns="http://www.w3.org/2000/svg" viewBox="0 0 32 32"><defs><style>.cls-1{fill:#fff;}</style></defs><g id="Layer_2" data-name="Layer 2"><g id="Line_2" data-name="Line 2"><g id="_8" data-name="8"><path class="cls-1" d="M16,20a1,1,0,0,0,1-1V7a1,1,0,0,0-2,0V19A1,1,0,0,0,16,20Zm6,0a1,1,0,0,0,1-1V10a1,1,0,0,0-2,0v9A1,1,0,0,0,22,20ZM10,20a1,1,0,0,0,1-1V15a1,1,0,0,0-2,0v4A1,1,0,0,0,10,20ZM0,0V2H2V21a3.82,3.82,0,0,0,4,4h6L8,32h3l4-7h2l4,7h3l-4-7h6a3.82,3.82,0,0,0,4-4V2h2V0ZM28,21a1.87,1.87,0,0,1-2,2H6a1.87,1.87,0,0,1-2-2S4,3.26,4,2H28C28,4,28,21,28,21Z"/></g></g></g></svg>