<?xml version="1.0" encoding="utf-8"?>
<!-- Generator: Adobe Illustrator 25.3.1, SVG Export Plug-In . SVG Version: 6.00 Build 0)  -->
<svg version="1.1" id="Layer_1" xmlns="http://www.w3.org/2000/svg" xmlns:xlink="http://www.w3.org/1999/xlink" x="0px" y="0px"
viewBox="0 0 32 32" style="enable-background:new 0 0 32 32;" xml:space="preserve">
<style type="text/css">
	.st0{fill:#FFFFFF;}
</style>
<g id="Layer_2_1_">
	<g id="Line_2">
		<g id="_8">
			<path class="st0" d="M16,20c0.6,0,1-0.4,1-1V7c0-0.6-0.4-1-1-1c-0.6,0-1,0.4-1,1v12C15,19.6,15.4,20,16,20z M22,20
				c0.6,0,1-0.4,1-1v-9c0-0.6-0.4-1-1-1s-1,0.4-1,1v9C21,19.6,21.4,20,22,20z M10,20c0.6,0,1-0.4,1-1v-4c0-0.6-0.4-1-1-1s-1,0.4-1,1
				v4C9,19.6,9.4,20,10,20z M0,0v2h2v19c-0.1,2.1,1.5,3.9,3.6,4c0.1,0,0.2,0,0.4,0h6l-4,7h3l4-7h2l4,7h3l-4-7h6
				c2.1,0.1,3.9-1.5,4-3.6c0-0.1,0-0.2,0-0.4V2h2V0H0z M28,21c0.1,1-0.7,1.9-1.7,2c-0.1,0-0.2,0-0.3,0H6c-1,0.1-1.9-0.7-2-1.7
				c0-0.1,0-0.2,0-0.3C4,21,4,3.3,4,2h24C28,4,28,21,28,21z"/>
		</g>
	</g>
</g>
</svg>
