<?xml version="1.0" encoding="utf-8"?>
<!-- Generator: Adobe Illustrator 21.1.0, SVG Export Plug-In . SVG Version: 6.00 Build 0)  -->
<svg version="1.1" id="Layer_1" xmlns="http://www.w3.org/2000/svg" xmlns:xlink="http://www.w3.org/1999/xlink" x="0px" y="0px"
	 viewBox="0 0 620 1030" style="enable-background:new 0 0 620 1030;" xml:space="preserve">
<style type="text/css">
	.st0{fill:#231F20;}
</style>
<g>
	<path d="M98,80.5c-7.2,0-13,5.8-13,13s5.8,13,13,13s13-5.8,13-13S105.2,80.5,98,80.5z M98,104.5c-6.1,0-11-4.9-11-11s4.9-11,11-11
		s11,4.9,11,11S104.1,104.5,98,104.5z"/>
	<path d="M118,89.5h-2.4c-0.5-2.1-1.3-4-2.3-5.6l1.6-1.8c1.2-1.2,1.2-3,0-4.2l-1.4-1.4c-1.2-1.2-3.1-1.2-4.2,0l-1.8,1.8
		c-1.8-1.2-3.5-1.9-5.5-2.3v-2.5c0-1.7-1.3-3-3-3h-2c-1.7,0-3,1.3-3,3V76c-1.9,0.4-3.9,1.2-5.7,2.3l-1.7-1.7c-1.2-1.2-3-1.2-4.2,0
		L81,78c-0.6,0.6-0.9,1.3-0.9,2.1c0,0.8,0.3,1.5,0.9,2.1l1.8,1.7c-1.1,1.8-1.9,3.6-2.3,5.6H78c-1.7,0-3,1.3-3,3v2c0,1.7,1.3,3,3,3
		h2.5c0.4,1.9,1.2,3.8,2.4,5.6l-1.7,1.8c-1.2,1.2-1.2,3,0,4.2l1.3,1.4c1.2,1.2,3,1.2,4.2,0l1.7-1.8c1.8,1.1,3.6,1.9,5.6,2.3v2.5
		c0,1.7,1.3,3,3,3h2c1.7,0,3-1.3,3-3v-2.4c2.1-0.5,3.9-1.3,5.6-2.3l1.7,1.6c1.2,1.2,3,1.2,4.2,0l1.4-1.4c1.2-1.2,1.2-3,0-4.2
		l-1.7-1.7c1.2-1.8,1.9-3.6,2.3-5.6h2.5c1.7,0,3-1.3,3-3v-2C121,90.8,119.7,89.5,118,89.5z M119,94.5c0,0.6-0.4,1-1,1h-4.2l-0.1,0.8
		c-0.4,2.2-1.2,4.3-2.6,6.3l-0.5,0.7l2.9,2.9c0.2,0.2,0.3,0.4,0.3,0.7s-0.1,0.5-0.3,0.7l-1.4,1.4c-0.4,0.4-1,0.4-1.4,0l-2.9-2.8
		l-0.7,0.5c-1.8,1.3-3.9,2.2-6.3,2.6l-0.8,0.1v4.1c0,0.6-0.4,1-1,1h-2c-0.6,0-1-0.4-1-1v-4.2l-0.8-0.1c-2.2-0.4-4.3-1.2-6.3-2.6
		l-0.7-0.5l-2.9,3c-0.4,0.4-1,0.4-1.4,0l-1.4-1.4c-0.4-0.4-0.4-1,0-1.4l2.9-3l-0.5-0.7c-1.4-2-2.3-4.1-2.6-6.3l-0.1-0.8H78
		c-0.6,0-1-0.4-1-1v-2c0-0.6,0.4-1,1-1h4.2l0.1-0.8c0.4-2.2,1.2-4.3,2.6-6.3l0.5-0.7l-3-2.9c-0.2-0.2-0.3-0.4-0.3-0.7
		c0-0.3,0.1-0.5,0.3-0.7l1.4-1.4c0.4-0.4,1-0.4,1.4,0l2.9,2.9l0.7-0.5c1.9-1.4,4.1-2.3,6.3-2.6l0.9-0.1v-4.2c0-0.6,0.4-1,1-1h2
		c0.6,0,1,0.4,1,1v4.2l0.7,0.1c2.2,0.4,4.3,1.2,6.3,2.6l0.7,0.5l3-3c0.4-0.4,1-0.4,1.4,0l1.4,1.4c0.4,0.4,0.4,1,0,1.4l-2.7,3
		l0.5,0.7c1.2,1.8,2.1,3.9,2.6,6.3l0.1,0.8h4c0.6,0,1,0.4,1,1V94.5z"/>
</g>
<g id="Layer_1_1_">
	<g>
		<path d="M204,97.5c-2.2,0-4-1.8-4-4s1.8-4,4-4s4,1.8,4,4S206.2,97.5,204,97.5z M204,91.5c-1.1,0-2,0.9-2,2s0.9,2,2,2s2-0.9,2-2
			S205.1,91.5,204,91.5z"/>
	</g>
	<g>
		<path d="M204,111.5c-2.2,0-4-1.8-4-4s1.8-4,4-4s4,1.8,4,4S206.2,111.5,204,111.5z M204,105.5c-1.1,0-2,0.9-2,2s0.9,2,2,2
			s2-0.9,2-2S205.1,105.5,204,105.5z"/>
	</g>
	<g>
		<path d="M204,83.5c-2.2,0-4-1.8-4-4s1.8-4,4-4s4,1.8,4,4S206.2,83.5,204,83.5z M204,77.5c-1.1,0-2,0.9-2,2s0.9,2,2,2s2-0.9,2-2
			S205.1,77.5,204,77.5z"/>
	</g>
</g>
<g id="Layer_2">
</g>
<g id="Layer_1_2_">
	<g>
		<path d="M310,97.5c-2.2,0-4-1.8-4-4s1.8-4,4-4s4,1.8,4,4S312.2,97.5,310,97.5z M310,91.5c-1.1,0-2,0.9-2,2s0.9,2,2,2s2-0.9,2-2
			S311.1,91.5,310,91.5z"/>
	</g>
	<g>
		<path d="M296,97.5c-2.2,0-4-1.8-4-4s1.8-4,4-4s4,1.8,4,4S298.2,97.5,296,97.5z M296,91.5c-1.1,0-2,0.9-2,2s0.9,2,2,2s2-0.9,2-2
			S297.1,91.5,296,91.5z"/>
	</g>
	<g>
		<path d="M324,97.5c-2.2,0-4-1.8-4-4s1.8-4,4-4s4,1.8,4,4S326.2,97.5,324,97.5z M324,91.5c-1.1,0-2,0.9-2,2s0.9,2,2,2s2-0.9,2-2
			S325.1,91.5,324,91.5z"/>
	</g>
</g>
<g id="Layer_2_1_">
</g>
<g>
	<rect x="410" y="81.4" transform="matrix(0.7071 -0.7071 0.7071 0.7071 57.8147 316.5064)" width="2" height="14.1"/>
</g>
<g>
	<path d="M416,115.5c-12.1,0-22-9.9-22-22c0-5.8,2.3-11.3,6.5-15.5l1.4,1.4c-3.8,3.8-5.9,8.8-5.9,14.1c0,11,9,20,20,20s20-9,20-20
		c0-10.7-8.4-19.5-19-20v9h-2v-11h1c12.1,0,22,9.9,22,22S428.1,115.5,416,115.5z"/>
</g>
<polygon points="529,71.5 529,73.5 540.2,73.5 521.9,88.3 511,81.3 500.4,88.7 501.6,90.3 511,83.7 522.1,90.7 542,74.6 542,86.5 
	544,86.5 544,71.5 "/>
<g>
	<rect x="500" y="95.5" width="2" height="20"/>
</g>
<g>
	<rect x="507" y="91.5" width="2" height="24"/>
</g>
<g>
	<rect x="542" y="95.5" width="2" height="20"/>
</g>
<g>
	<rect x="535" y="91.5" width="2" height="24"/>
</g>
<g>
	<rect x="528" y="95.5" width="2" height="20"/>
</g>
<g>
	<rect x="521" y="101.5" width="2" height="14"/>
</g>
<g>
	<rect x="514" y="95.5" width="2" height="20"/>
</g>
<path d="M118,178.6c-0.7-0.6-1.6-0.8-2.6-0.7l-22,4.2c-1.4,0.3-2.4,1.6-2.4,3v23.1c-1.5-1.7-3.6-2.7-6-2.7c-4.4,0-8,3.6-8,8
	s3.6,8,8,8s8-3.6,8-8v-22.2l24-4.6v16.5c-1.5-1.7-3.6-2.7-6-2.7c-4.4,0-8,3.6-8,8s3.6,8,8,8s8-3.6,8-8v-27.6
	C119,180,118.6,179.2,118,178.6z M85,219.5c-3.3,0-6-2.7-6-6s2.7-6,6-6s6,2.7,6,6S88.3,219.5,85,219.5z M111,214.5c-3.3,0-6-2.7-6-6
	s2.7-6,6-6s6,2.7,6,6S114.3,214.5,111,214.5z M93,189.3v-4.2c0-0.5,0.3-0.9,0.8-1l22-4.2c0.4-0.1,0.7,0,0.9,0.2
	c0.1,0.2,0.3,0.4,0.3,0.8v3.8L93,189.3z"/>
<g>
	<path d="M201,198.5c-2.2,0-4-1.8-4-4s1.8-4,4-4s4,1.8,4,4S203.2,198.5,201,198.5z M201,192.5c-1.1,0-2,0.9-2,2s0.9,2,2,2s2-0.9,2-2
		S202.1,192.5,201,192.5z"/>
</g>
<path d="M223,184.5h-38c-1.7,0-3,1.3-3,3v24c0,1.7,1.3,3,3,3h38c1.7,0,3-1.3,3-3v-24C226,185.8,224.7,184.5,223,184.5z M185,186.5
	h38c0.6,0,1,0.4,1,1v1.5l-20.1,16.3l-11-7l-8.9,6.3v-17.1C184.1,186.9,184.4,186.5,185,186.5z M223,212.5h-38c-0.6,0-1-0.4-1-1V207
	l9-6.3l11,7l20-16.1v19.9C224,212.1,223.6,212.5,223,212.5z"/>
<g id="Layer_2_2_">
</g>
<polygon points="332,198.5 311,198.5 311,177.5 309,177.5 309,198.5 288,198.5 288,200.5 309,200.5 309,221.5 311,221.5 311,200.5 
	332,200.5 "/>
<g>
	<path d="M416,221.5c-12.1,0-22-9.9-22-22s9.9-22,22-22s22,9.9,22,22S428.1,221.5,416,221.5z M416,179.5c-11,0-20,9-20,20
		s9,20,20,20s20-9,20-20S427,179.5,416,179.5z"/>
</g>
<g>
	<polygon points="413.4,212.2 411.9,210.8 423.2,199.5 411.9,188.2 413.4,186.8 426.1,199.5 	"/>
</g>
<g>
	<polygon points="87.8,327.2 86.4,325.8 106.8,305.5 86.4,285.2 87.8,283.8 109.6,305.5 	"/>
</g>
<g>
	<path d="M310,327.5c-12.1,0-22-9.9-22-22s9.9-22,22-22s22,9.9,22,22S322.1,327.5,310,327.5z M310,285.5c-11,0-20,9-20,20
		s9,20,20,20s20-9,20-20S321,285.5,310,285.5z"/>
</g>
<g>
	<rect x="309" y="297.5" width="2" height="20"/>
</g>
<g>
	<rect x="309" y="293.5" width="2" height="2"/>
</g>
<g>
	<path d="M522,221.5c-12.1,0-22-9.9-22-22s9.9-22,22-22c12.1,0,22,9.9,22,22S534.1,221.5,522,221.5z M522,179.5c-11,0-20,9-20,20
		s9,20,20,20s20-9,20-20S533,179.5,522,179.5z"/>
</g>
<g>
	<polygon points="525.6,212.2 512.9,199.5 525.6,186.8 527.1,188.2 515.8,199.5 527.1,210.8 	"/>
</g>
<g>
	<polygon points="214.1,327.2 192.4,305.5 214.1,283.8 215.6,285.2 195.2,305.5 215.6,325.8 	"/>
</g>
<g>
	<path d="M415.7,328.2l-4.1-18.3l-18.3-4.1l44.7-22.3L415.7,328.2z M399.3,305l14.1,3.1l3.1,14.1l17.1-34.3L399.3,305z"/>
</g>
<path d="M543.7,326.8l-13.3-13.3c2.9-3.2,4.6-7.4,4.6-12c0-9.9-8.1-18-18-18c-9.9,0-18,8.1-18,18s8.1,18,18,18c4.6,0,8.8-1.8,12-4.6
	l13.3,13.3L543.7,326.8z M501,301.5c0-8.8,7.2-16,16-16s16,7.2,16,16s-7.2,16-16,16S501,310.3,501,301.5z"/>
<path d="M117,396.5H79c-1.7,0-3,1.3-3,3v24c0,1.7,1.3,3,3,3h38c1.7,0,3-1.3,3-3v-24C120,397.8,118.7,396.5,117,396.5z M118,423.6
	l-15.2-10.1l15.2-13.8V423.6C118,423.5,118,423.6,118,423.6z M78,423.5v-23.7l15.1,13.7L78,423.5C78,423.6,78,423.5,78,423.5z
	 M98.6,414.5c-0.4,0.4-1,0.4-1.4,0l-17.7-16h36.8L98.6,414.5z M94.7,414.9l1.3,1.2c0.6,0.5,1.3,0.8,2,0.8s1.4-0.3,2-0.8l1.3-1.2
	l14.4,9.6H80.3L94.7,414.9z"/>
<g>
	<path d="M223,426.5h-38c-1.7,0-3-1.3-3-3v-28c0-1.7,1.3-3,3-3h8.5c1.4,0,2.6,0.9,2.9,2.3l0.2,1c0.2,0.5,0.6,0.7,1,0.7H223
		c1.7,0,3,1.4,3,3.1v24C226,425.2,224.7,426.5,223,426.5z M185,394.5c-0.6,0-1,0.4-1,1v28c0,0.6,0.4,1,1,1h38c0.6,0,1-0.4,1-1v-24
		c0-0.6-0.4-1-1-1h-25.4c-1.3,0-2.5-0.9-2.9-2.2l-0.2-1.1c-0.2-0.4-0.5-0.7-1-0.7H185z"/>
</g>
<path class="st0" d="M332.7,432.8l-9.8-9.8c2-2.3,3.1-5.2,3.1-8.4c0-6-4.1-11.1-9.7-12.6c0.5-1.1,0.7-2.3,0.7-3.4
	c0-2.3-0.9-4.6-2.6-6.4c-3.2-3.2-8.3-3.5-11.9-0.7c-1.5-1.3-3.4-2-5.5-2c-2.3,0-4.6,0.9-6.4,2.6c-3.4,3.4-3.5,8.9-0.2,12.6l0,0
	c0.5,0.6,2,2.1,6.1,6.2c1.3,1.3,2.5,2.5,3.5,3.5c0,0.1,0,0.1,0,0.2c0,7.2,5.8,13,13,13c3.2,0,6.2-1.2,8.4-3.1l9.8,9.8L332.7,432.8z
	 M297.9,409.4c-2.3-2.2-5-5-5.8-5.8l-0.3-0.3c-2.5-2.8-2.5-7.1,0.2-9.8c1.4-1.3,3.2-2,5-2c1.9,0,3.6,0.7,4.8,1.9l0.7,0.7l0.7-0.7
	c2.8-2.6,7.1-2.6,9.8,0.1c1.3,1.4,2,3.2,2,5c0,1.1-0.3,2.1-0.8,3.1c-0.4-0.1-0.8-0.1-1.2-0.1c-6.2,0-11.5,4.4-12.7,10.3
	C299.6,411.1,298.8,410.3,297.9,409.4z M313,425.5c-6.1,0-11-4.9-11-11s4.9-11,11-11s11,4.9,11,11S319.1,425.5,313,425.5z"/>
<g>
	<path d="M415.9,431.8l-0.7-0.7c0,0-17.7-17.7-17.9-17.9c-4.7-5.5-4.4-13.7,0.6-18.7c2.6-2.6,6-4,9.7-4c3,0,5.9,1,8.3,2.8
		c5.4-4.1,13-3.7,18,1.2l0,0c2.6,2.6,4,6,4,9.6c0,3.4-1.2,6.5-3.3,9l0,0c-0.4,0.4-2.7,2.7-18,18L415.9,431.8z M407.6,392.5
		c-3.2,0-6.1,1.2-8.3,3.4c-4.3,4.3-4.5,11.3-0.5,15.9c0.1,0.2,13.8,13.9,17.1,17.2c6.8-6.8,16.4-16.4,17.1-17.2v-0.1
		c1.9-2.1,2.9-4.8,2.9-7.6c0-3.1-1.2-6-3.4-8.2c-4.4-4.3-11.3-4.6-15.9-0.6l-0.7,0.6l-0.7-0.6C413.1,393.5,410.4,392.5,407.6,392.5z
		"/>
</g>
<g>
	<path d="M541,433.5h-10c-1.7,0-3-1.3-3-3v-15c0-0.6-0.4-1-1-1h-10c-0.6,0-1,0.4-1,1v15c0,1.7-1.3,3-3,3h-10c-1.7,0-3-1.3-3-3v-18.2
		c0-0.8,0.3-1.5,0.9-2.1l19-19c1.2-1.2,3-1.2,4.2,0l19,19c0.6,0.6,0.9,1.3,0.9,2.1v18.2C544,432.2,542.7,433.5,541,433.5z
		 M517,412.5h10c1.7,0,3,1.3,3,3v15c0,0.6,0.4,1,1,1h10c0.6,0,1-0.4,1-1v-18.2c0-0.3-0.1-0.5-0.3-0.7l-19-19c-0.4-0.4-1-0.4-1.4,0
		l-19,19c-0.2,0.2-0.3,0.4-0.3,0.7v18.2c0,0.6,0.4,1,1,1h10c0.6,0,1-0.4,1-1v-15C514,413.8,515.3,412.5,517,412.5z"/>
</g>
<g>
	<path d="M111,536.5c0,0.6-0.4,1-1,1H86c-0.6,0-1-0.4-1-1v-38c0-0.6,0.4-1,1-1h13v-2H86c-1.7,0-3,1.3-3,3v38c0,1.7,1.3,3,3,3h24
		c1.7,0,3-1.3,3-3v-27h-2V536.5z"/>
	<polygon points="107,501.5 107,495.5 105,495.5 105,501.5 99,501.5 99,503.5 105,503.5 105,509.5 107,509.5 107,503.5 113,503.5 
		113,501.5 	"/>
	<rect x="91" y="512.5" width="10" height="2"/>
	<rect x="91" y="520.5" width="14" height="2"/>
	<rect x="91" y="528.5" width="10" height="2"/>
</g>
<g>
	<path d="M217,536.5c0,0.6-0.4,1-1,1h-24c-0.6,0-1-0.4-1-1v-38c0-0.6,0.4-1,1-1h13v-2h-13c-1.7,0-3,1.3-3,3v38c0,1.7,1.3,3,3,3h24
		c1.7,0,3-1.3,3-3v-27h-2V536.5z"/>
	<polygon points="213,501.5 213,495.5 211,495.5 211,501.5 205,501.5 205,503.5 211,503.5 211,509.5 213,509.5 213,503.5 219,503.5 
		219,501.5 	"/>
</g>
<g>
	<path d="M322,539.5h-24c-1.7,0-3-1.3-3-3v-38c0-1.7,1.3-3,3-3h24c1.7,0,3,1.3,3,3v38C325,538.2,323.7,539.5,322,539.5z M298,497.5
		c-0.6,0-1,0.4-1,1v38c0,0.6,0.4,1,1,1h24c0.6,0,1-0.4,1-1v-38c0-0.6-0.4-1-1-1H298z"/>
</g>
<g>
	<rect x="303" y="512.5" width="10" height="2"/>
</g>
<g>
	<rect x="303" y="520.5" width="14" height="2"/>
</g>
<g>
	<rect x="303" y="528.5" width="10" height="2"/>
</g>
<g>
	<rect x="303" y="504.5" width="14" height="2"/>
</g>
<g>
	<path d="M436,524.5v12c0,0.6-0.4,1-1,1h-38c-0.6,0-1-0.4-1-1v-12h-2v12c0,1.7,1.3,3,3,3h38c1.7,0,3-1.3,3-3v-12H436z"/>
	<polygon points="426.7,519.2 425.3,517.8 417,526.1 417,495.5 415,495.5 415,526.1 406.7,517.8 405.3,519.2 416,529.9 	"/>
</g>
<g>
	<g>
		<g>
			<path d="M518.8,520.7l2.1-6.3l15.1-15.1l4.2,4.2l-15.1,15.1L518.8,520.7z M522.7,515.4l-0.7,2.1l2.1-0.7l13.3-13.3l-1.4-1.4
				L522.7,515.4z"/>
		</g>
		<g>
			<path d="M540.9,502.8l-4.2-4.2l1.4-1.4c1.2-1.2,3-1.2,4.2,0c0.6,0.6,0.9,1.3,0.9,2.1c0,0.8-0.3,1.5-0.9,2.1L540.9,502.8z
				 M539.5,498.6l1.4,1.4c0.2-0.2,0.3-0.4,0.3-0.7c0-0.3-0.1-0.5-0.3-0.7C540.5,498.2,539.9,498.2,539.5,498.6z"/>
		</g>
	</g>
	<g>
		<path d="M536,539.5h-33c-1.7,0-3-1.3-3-3v-33c0-1.7,1.3-3,3-3h27v2h-27c-0.6,0-1,0.4-1,1v33c0,0.6,0.4,1,1,1h33c0.6,0,1-0.4,1-1
			v-27h2v27C539,538.2,537.7,539.5,536,539.5z"/>
	</g>
</g>
<g>
	<path d="M98,645.5c-12.1,0-22-9.9-22-22s9.9-22,22-22s22,9.9,22,22S110.1,645.5,98,645.5z M98,603.5c-11,0-20,9-20,20s9,20,20,20
		s20-9,20-20S109,603.5,98,603.5z"/>
</g>
<g>
	<polygon points="94,633.6 85.3,624.9 86.7,623.4 94,630.7 109.3,615.4 110.7,616.9 	"/>
</g>
<g>
	<polygon points="196,639.6 181.3,624.9 182.7,623.4 196,636.7 225.3,607.4 226.7,608.9 	"/>
</g>
<g>
	<path d="M310,601.5v2c11,0,20,9,20,20s-9,20-20,20s-20-9-20-20c0-4.7,1.7-9.1,4.7-12.7l0.9,5.8l2-0.3l-1.4-8.9l-8.9,1.4l0.3,2
		l5.2-0.8c-3.1,3.8-4.8,8.6-4.8,13.5c0,12.1,9.9,22,22,22s22-9.9,22-22S322.1,601.5,310,601.5z"/>
	<polygon points="320,622.5 311,622.5 311,609.5 309,609.5 309,624.5 320,624.5 	"/>
</g>
<g>
	<path d="M416,601.5c-12.1,0-22,9.9-22,22s9.9,22,22,22s22-9.9,22-22S428.1,601.5,416,601.5z M416,643.5c-11,0-20-9-20-20
		s9-20,20-20s20,9,20,20S427,643.5,416,643.5z"/>
	<polygon points="417,609.5 415,609.5 415,624.5 426,624.5 426,622.5 417,622.5 	"/>
</g>
<g>
	<path d="M534.9,611.5c-0.4-1.7-2-3-3.9-3s-3.4,1.3-3.9,3H500v2h27.1c0.4,1.7,2,3,3.9,3s3.4-1.3,3.9-3h9.1v-2H534.9z M531,614.5
		c-1.1,0-2-0.9-2-2s0.9-2,2-2s2,0.9,2,2S532.1,614.5,531,614.5z"/>
	<path d="M531,630.5c-1.9,0-3.4,1.3-3.9,3H500v2h27.1c0.4,1.7,2,3,3.9,3s3.4-1.3,3.9-3h9.1v-2h-9.1
		C534.4,631.8,532.9,630.5,531,630.5z M531,636.5c-1.1,0-2-0.9-2-2s0.9-2,2-2s2,0.9,2,2S532.1,636.5,531,636.5z"/>
	<path d="M513,619.5c-1.9,0-3.4,1.3-3.9,3H500v2h9.1c0.4,1.7,2,3,3.9,3c1.9,0,3.4-1.3,3.9-3H544v-2h-27.1
		C516.4,620.8,514.9,619.5,513,619.5z M513,625.5c-1.1,0-2-0.9-2-2s0.9-2,2-2c1.1,0,2,0.9,2,2S514.1,625.5,513,625.5z"/>
</g>
<g>
	<path d="M117,744.5H79c-1.7,0-3-1.3-3-3v-22c0-1.7,1.3-3,3-3h8.7c0.4,0,0.7-0.2,0.9-0.5l0.9-1.9c0.4-1,1.5-1.6,2.7-1.6h11.5
		c1.2,0,2.3,0.6,2.7,1.6l0.9,1.7c0.2,0.3,0.5,0.7,0.9,0.7h8.8c1.7,0,3,1.1,3,2.8v22C120,743.2,118.7,744.5,117,744.5z M79,718.5
		c-0.6,0-1,0.4-1,1v22c0,0.6,0.4,1,1,1h38c0.6,0,1-0.4,1-1v-22c0-0.6-0.4-1-1-1h-8.8c-1.1,0-2.1-0.6-2.7-1.6l-0.9-1.8
		c-0.2-0.4-0.5-0.6-0.9-0.6H92.2c-0.4,0-0.7,0.3-0.9,0.6l-0.9,1.9c-0.4,1-1.5,1.5-2.7,1.5H79z"/>
</g>
<g>
	<path d="M98,740.5c-5.5,0-10-4.5-10-10s4.5-10,10-10s10,4.5,10,10S103.5,740.5,98,740.5z M98,722.5c-4.4,0-8,3.6-8,8s3.6,8,8,8
		s8-3.6,8-8S102.4,722.5,98,722.5z"/>
</g>
<g>
	<path d="M328,751.9l-13.4-4.8c-1.3,0.3-2.8,0.4-4.6,0.4c-12.7,0-22-8.4-22-20c0-5.4,1.9-10.1,5.6-13.8c4.1-4,10-6.2,16.4-6.2
		c12.7,0,22,8.4,22,20c0,4.3-1.4,8.5-4,11.8V751.9z M314.8,745.1l11.2,4v-10.5l0.2-0.3c2.5-3,3.8-6.8,3.8-10.8c0-10.4-8.4-18-20-18
		c-6,0-11.3,2-15,5.6c-3.3,3.3-5,7.6-5,12.4c0,10.4,8.4,18,20,18c1.8,0,3.2-0.1,4.5-0.4H314.8z"/>
</g>
<g>
	<path d="M522,749l-7.5-8.5H503c-1.7,0-3-1.3-3-3v-22c0-1.7,1.3-3,3-3h38c1.7,0,3,1.3,3,3v22c0,1.7-1.3,3-3,3h-11.5L522,749z
		 M503,714.5c-0.6,0-1,0.4-1,1v22c0,0.6,0.4,1,1,1h12.5l6.5,7.5l6.5-7.5H541c0.6,0,1-0.4,1-1v-22c0-0.6-0.4-1-1-1H503z"/>
</g>
<path d="M325.1,843.4c-0.1-0.1-0.1-0.3-0.1-0.4v-14.5c0-4-1.6-7.8-4.4-10.6c-3-3-7.1-4.6-11.6-4.4c-7.8,0.5-14,7.3-14,15.4V843
	c0,0.1-0.1,0.3-0.1,0.4l-6.7,11.1H307c0,1.7,1.3,3,3,3s3-1.3,3-3h18.8L325.1,843.4z M310,855.5c-0.6,0-1-0.4-1-1h2
	C311,855.1,310.6,855.5,310,855.5z M311.7,852.5h-3.4h-16.5l4.8-8c0.3-0.4,0.4-1,0.4-1.5v-14.1c-0.1-7.1,5.3-12.9,12.1-13.4
	c3.8-0.2,7.4,1.2,10,3.8c2.5,2.5,3.9,5.7,3.9,9.2V843c0,0.5,0.1,1.1,0.3,1.5l4.8,8H311.7z"/>
<g>
	<path d="M419,816.5c0-1.7-1.3-3-3-3s-3,1.3-3,3h-16v2h38v-2H419z M416,815.5c0.6,0,1,0.4,1,1h-2C415,815.9,415.4,815.5,416,815.5z"
		/>
	<rect x="408" y="823.5" width="2" height="28"/>
	<rect x="422" y="823.5" width="2" height="28"/>
	<rect x="415" y="823.5" width="2" height="28"/>
	<path d="M429,854.5c0,0.6-0.4,1-1,1h-24c-0.6,0-1-0.4-1-1v-34h-2v34c0,1.7,1.3,3,3,3h24c1.7,0,3-1.3,3-3v-34h-2V854.5z"/>
</g>
<g>
	<path d="M536,858.4l-14-9.7l-14,9.7v-41.9c0-1.7,1.3-3,3-3h22c1.7,0,3,1.3,3,3V858.4z M522,846.3l12,8.3v-38.1c0-0.6-0.4-1-1-1h-22
		c-0.6,0-1,0.4-1,1v38.1L522,846.3z"/>
</g>
<g>
	<path d="M98,943.5c6.6,0,12-5.4,12-12s-5.4-12-12-12s-12,5.4-12,12S91.4,943.5,98,943.5z M98,921.5c5.5,0,10,4.5,10,10
		s-4.5,10-10,10s-10-4.5-10-10S92.5,921.5,98,921.5z"/>
	<path d="M107,945.5H89c-7.2,0-13,5.8-13,13v5h2v-5c0-6.1,4.9-11,11-11h18V945.5z"/>
	<polygon points="120,955.5 114,955.5 114,949.5 112,949.5 112,955.5 106,955.5 106,957.5 112,957.5 112,963.5 114,963.5 114,957.5 
		120,957.5 	"/>
</g>
<g>
	<path d="M204,943.5c-6.6,0-12-5.4-12-12s5.4-12,12-12s12,5.4,12,12S210.6,943.5,204,943.5z M204,921.5c-5.5,0-10,4.5-10,10
		s4.5,10,10,10s10-4.5,10-10S209.5,921.5,204,921.5z"/>
</g>
<g>
	<path d="M184,963.5h-2v-5c0-7.2,5.8-13,13-13h18v2h-18c-6.1,0-11,4.9-11,11V963.5z"/>
</g>
<g>
	<path d="M218,963.8l-6.7-6.6c-1.8-2.2-1.7-5.3,0.2-7.2c0.9-0.9,2.3-1.5,3.7-1.5c1,0,2,0.3,2.8,0.8c2.1-1.3,4.8-1,6.5,0.7l0,0l0,0
		c0.9,0.9,1.5,2.3,1.5,3.6c0,1.3-0.4,2.5-1.2,3.5L218,963.8z M215.2,950.5c-0.9,0-1.7,0.3-2.3,0.9c-1.2,1.2-1.2,3.1-0.1,4.5l0.1,0.1
		l5.1,5l5.3-5.3c0.6-0.7,0.7-1.5,0.7-2.1c0-0.8-0.3-1.6-0.9-2.2l0,0c-1.2-1.2-3.1-1.2-4.5-0.1l-0.6,0.5l-0.6-0.6
		C216.6,950.6,215.8,950.5,215.2,950.5z"/>
</g>
<g>
	<path d="M310,943.5c6.6,0,12-5.4,12-12s-5.4-12-12-12s-12,5.4-12,12S303.4,943.5,310,943.5z M310,921.5c5.5,0,10,4.5,10,10
		s-4.5,10-10,10s-10-4.5-10-10S304.5,921.5,310,921.5z"/>
	<path d="M319,945.5h-18c-7.2,0-13,5.8-13,13v5h2v-5c0-6.1,4.9-11,11-11h18c6.1,0,11,4.9,11,11v5h2v-5
		C332,951.3,326.2,945.5,319,945.5z"/>
</g>
<path d="M422,929.5h-23.2l8.3-8.3l-1.4-1.4l-10.8,10.7l10.7,10.7l1.4-1.4l-8.2-8.3H422c7.7,0,14,6.3,14,14v18h2v-18
	C438,936.7,430.8,929.5,422,929.5z"/>
<path d="M532.4,919.8l-1.4,1.4l8.3,8.3H516c-8.8,0-16,7.2-16,16v18h2v-18c0-7.7,6.3-14,14-14h23.2l-8.3,8.3l1.4,1.4l10.8-10.7
	L532.4,919.8z"/>
<g>
	<path d="M93,849.5c-2.2,0-4,1.8-4,4s1.8,4,4,4c2.2,0,4-1.8,4-4S95.2,849.5,93,849.5z M93,855.5c-1.1,0-2-0.9-2-2s0.9-2,2-2
		s2,0.9,2,2S94.1,855.5,93,855.5z"/>
	<path d="M111,849.5c-2.2,0-4,1.8-4,4s1.8,4,4,4s4-1.8,4-4S113.2,849.5,111,849.5z M111,855.5c-1.1,0-2-0.9-2-2s0.9-2,2-2s2,0.9,2,2
		S112.1,855.5,111,855.5z"/>
	<path d="M117.6,820.9c-0.8-0.9-1.9-1.4-3.1-1.4H86.8l-0.4-2.6c-0.3-1.9-2-3.4-4-3.4H76v2h6.4c1,0,1.9,0.7,2,1.7l4.2,27.1
		c0.4,1.9,2.1,3.3,4,3.3H114v-2H92.6c-1,0-1.8-0.7-2-1.7l-0.4-2.3h22.2c1.9,0,3.6-1.4,4-3.5l2.1-14
		C118.7,822.9,118.4,821.8,117.6,820.9z M116.5,823.8l-2.1,14c-0.2,1.1-1,1.8-2,1.8H89.9l-2.8-18h27.4c0.6,0,1.2,0.3,1.6,0.7
		C116.5,822.6,116.6,823.2,116.5,823.8z"/>
</g>
<g>
	<path d="M199,849.5c-2.2,0-4,1.8-4,4s1.8,4,4,4s4-1.8,4-4S201.2,849.5,199,849.5z M199,855.5c-1.1,0-2-0.9-2-2s0.9-2,2-2s2,0.9,2,2
		S200.1,855.5,199,855.5z"/>
	<path d="M217,849.5c-2.2,0-4,1.8-4,4s1.8,4,4,4s4-1.8,4-4S219.2,849.5,217,849.5z M217,855.5c-1.1,0-2-0.9-2-2s0.9-2,2-2s2,0.9,2,2
		S218.1,855.5,217,855.5z"/>
	<path d="M223.9,820.6c-0.6-0.7-1.4-1.1-2.3-1.1h-28.8l-0.6-3.5c-0.3-1.5-1.5-2.5-3-2.5H182v2h7.3c0.5,0,0.9,0.4,1,0.9l4.5,28.6
		c0.3,1.5,1.5,2.5,3,2.5H220v-2h-22.2c-0.5,0-0.9-0.4-1-0.9l-0.5-3.1h22.9c1.5,0,2.7-1,3-2.6l2.4-16
		C224.7,822.1,224.5,821.3,223.9,820.6z M207,831.5v8h-4.1l-1.2-8H207z M201.4,829.5l-1.2-8h6.8v8H201.4z M209,831.5h5.3l-1.2,8H209
		V831.5z M209,829.5v-8h6.8l-1.2,8H209z M198.1,821.5l1.2,8h-4.9l-1.3-8H198.1z M194.7,831.5h4.9l1.2,8H196L194.7,831.5z
		 M220.2,838.6c-0.1,0.5-0.5,0.9-1,0.9h-4l1.2-8h4.9L220.2,838.6z M222.6,822.7l-1,6.8h-4.9l1.2-8h3.7c0.3,0,0.6,0.1,0.8,0.4
		C222.5,822,222.7,822.3,222.6,822.7z"/>
</g>
<g>
	<path d="M204,707.5c-6.4-0.1-12.3,2.2-16.4,6.2c-3.7,3.6-5.6,8.4-5.6,13.8c0,11.6,9.3,20,22,20c1.8,0,3.3-0.1,4.6-0.4l13.4,4.8
		v-12.6c2.6-3.4,4-7.5,4-11.8C226,715.9,216.7,707.5,204,707.5z M220.2,738.4l-0.2,0.3v10.4l-11.2-4l-0.3,0.1
		c-1.3,0.3-2.8,0.4-4.5,0.4c-11.6,0-20-7.6-20-18c0-4.8,1.7-9.1,5-12.4c3.7-3.7,9.1-5.7,15-5.6c11.6,0,20,7.6,20,18
		C224,731.5,222.7,735.3,220.2,738.4z"/>
	<path d="M204,723.5c-2.2,0-4,1.8-4,4s1.8,4,4,4s4-1.8,4-4S206.2,723.5,204,723.5z M204,729.5c-1.1,0-2-0.9-2-2s0.9-2,2-2s2,0.9,2,2
		S205.1,729.5,204,729.5z"/>
	<path d="M193,723.5c-2.2,0-4,1.8-4,4s1.8,4,4,4s4-1.8,4-4S195.2,723.5,193,723.5z M193,729.5c-1.1,0-2-0.9-2-2s0.9-2,2-2s2,0.9,2,2
		S194.1,729.5,193,729.5z"/>
	<path d="M215,723.5c-2.2,0-4,1.8-4,4s1.8,4,4,4s4-1.8,4-4S217.2,723.5,215,723.5z M215,729.5c-1.1,0-2-0.9-2-2s0.9-2,2-2s2,0.9,2,2
		S216.1,729.5,215,729.5z"/>
</g>
<g>
	<path d="M416,722.5c-2.2,0-4,1.8-4,4s1.8,4,4,4s4-1.8,4-4S418.2,722.5,416,722.5z M416,728.5c-1.1,0-2-0.9-2-2s0.9-2,2-2s2,0.9,2,2
		S417.1,728.5,416,728.5z"/>
	<path d="M405,722.5c-2.2,0-4,1.8-4,4s1.8,4,4,4s4-1.8,4-4S407.2,722.5,405,722.5z M405,728.5c-1.1,0-2-0.9-2-2s0.9-2,2-2s2,0.9,2,2
		S406.1,728.5,405,728.5z"/>
	<path d="M427,722.5c-2.2,0-4,1.8-4,4s1.8,4,4,4s4-1.8,4-4S429.2,722.5,427,722.5z M427,728.5c-1.1,0-2-0.9-2-2s0.9-2,2-2s2,0.9,2,2
		S428.1,728.5,427,728.5z"/>
	<path d="M435,712.5h-38c-1.7,0-3,1.3-3,3v22c0,1.7,1.3,3,3,3h11.5l7.5,8.5l7.5-8.5H435c1.7,0,3-1.3,3-3v-22
		C438,713.8,436.7,712.5,435,712.5z M436,737.5c0,0.6-0.4,1-1,1h-12.5L416,746l-6.5-7.5H397c-0.6,0-1-0.4-1-1v-22c0-0.6,0.4-1,1-1
		h38c0.6,0,1,0.4,1,1V737.5z"/>
</g>
</svg>
